HIERARCHY
ROOT Hips
{
	OFFSET 0.00000 0.00000 0.00000
	CHANNELS 6 Xposition Yposition Zposition Zrotation Yrotation Xrotation 
	JOINT LHipJoint
	{
		OFFSET 0 0 0
		CHANNELS 3 Zrotation Yrotation Xrotation
		JOINT LeftUpLeg
		{
			OFFSET 1.73240 -1.89999 0.57994
			CHANNELS 3 Zrotation Yrotation Xrotation
			JOINT LeftLeg
			{
				OFFSET 2.43106 -6.67930 0.00000
				CHANNELS 3 Zrotation Yrotation Xrotation
				JOINT LeftFoot
				{
					OFFSET 2.78854 -7.66147 0.00000
					CHANNELS 3 Zrotation Yrotation Xrotation
					JOINT LeftToeBase
					{
						OFFSET 0.17314 -0.47571 2.01064
						CHANNELS 3 Zrotation Yrotation Xrotation
						End Site
						{
							OFFSET 0.00000 -0.00000 1.04147
						}
					}
				}
			}
		}
	}
	JOINT RHipJoint
	{
		OFFSET 0 0 0
		CHANNELS 3 Zrotation Yrotation Xrotation
		JOINT RightUpLeg
		{
			OFFSET -1.57078 -1.89998 0.57994
			CHANNELS 3 Zrotation Yrotation Xrotation
			JOINT RightLeg
			{
				OFFSET -2.50166 -6.87326 0.00000
				CHANNELS 3 Zrotation Yrotation Xrotation
				JOINT RightFoot
				{
					OFFSET -2.77304 -7.61886 0.00000
					CHANNELS 3 Zrotation Yrotation Xrotation
					JOINT RightToeBase
					{
						OFFSET -0.23513 -0.64602 2.11039
						CHANNELS 3 Zrotation Yrotation Xrotation
						End Site
						{
							OFFSET -0.00000 -0.00000 1.10597
						}
					}
				}
			}
		}
	}
	JOINT LowerBack
	{
		OFFSET 0 0 0
		CHANNELS 3 Zrotation Yrotation Xrotation
		JOINT Spine
		{
			OFFSET -0.00908 2.00015 -0.35323
			CHANNELS 3 Zrotation Yrotation Xrotation
			JOINT Spine1
			{
				OFFSET 0.05647 2.02258 0.04270
				CHANNELS 3 Zrotation Yrotation Xrotation
				JOINT Neck
				{
					OFFSET 0 0 0
					CHANNELS 3 Zrotation Yrotation Xrotation
					JOINT Neck1
					{
						OFFSET -0.02074 1.73711 0.13117
						CHANNELS 3 Zrotation Yrotation Xrotation
						JOINT Head
						{
							OFFSET -0.02359 1.73615 -0.24320
							CHANNELS 3 Zrotation Yrotation Xrotation
							End Site
							{
								OFFSET -0.00579 1.75982 -0.09688
							}
						}
					}
				}
				JOINT LeftShoulder
				{
					OFFSET 0 0 0
					CHANNELS 3 Zrotation Yrotation Xrotation
					JOINT LeftArm
					{
						OFFSET 3.20537 1.11432 -0.27680
						CHANNELS 3 Zrotation Yrotation Xrotation
						JOINT LeftForeArm
						{
							OFFSET 5.05923 -0.00000 -0.00000
							CHANNELS 3 Zrotation Yrotation Xrotation
							JOINT LeftHand
							{
								OFFSET 3.51996 -0.00000 0.00000
								CHANNELS 3 Zrotation Yrotation Xrotation
								JOINT LeftFingerBase
								{
									OFFSET 0 0 0
									CHANNELS 3 Zrotation Yrotation Xrotation
									JOINT LeftHandIndex1
									{
										OFFSET 0.65238 -0.00000 0.00000
										CHANNELS 3 Zrotation Yrotation Xrotation
										End Site
										{
											OFFSET 0.52596 -0.00000 0.00000
										}
									}
								}
								JOINT LThumb
								{
									OFFSET 0 0 0
									CHANNELS 3 Zrotation Yrotation Xrotation
									End Site
									{
										OFFSET 0.53399 -0.00000 0.53399
									}
								}
							}
						}
					}
				}
				JOINT RightShoulder
				{
					OFFSET 0 0 0
					CHANNELS 3 Zrotation Yrotation Xrotation
					JOINT RightArm
					{
						OFFSET -2.96983 1.42602 -0.37449
						CHANNELS 3 Zrotation Yrotation Xrotation
						JOINT RightForeArm
						{
							OFFSET -5.40867 -0.00000 0.00000
							CHANNELS 3 Zrotation Yrotation Xrotation
							JOINT RightHand
							{
								OFFSET -3.12964 -0.00000 0.00000
								CHANNELS 3 Zrotation Yrotation Xrotation
								JOINT RightFingerBase
								{
									OFFSET 0 0 0
									CHANNELS 3 Zrotation Yrotation Xrotation
									JOINT RightHandIndex1
									{
										OFFSET -0.83271 -0.00000 0.00000
										CHANNELS 3 Zrotation Yrotation Xrotation
										End Site
										{
											OFFSET -0.67135 -0.00000 0.00000
										}
									}
								}
								JOINT RThumb
								{
									OFFSET 0 0 0
									CHANNELS 3 Zrotation Yrotation Xrotation
									End Site
									{
										OFFSET -0.68160 -0.00000 0.68160
									}
								}
							}
						}
					}
				}
			}
		}
	}
}
MOTION
Frames: 16
Frame Time: 0.0444444
0.00 0.00 0.00 0 0 0 0 0 0 -21 0 0 0 0 0 0 0 0 0 0 0 0 0 0 21 0 0 0 0 0 0 0 0 0 0 0 0 0 0 0 0 0 0 0 0 0 0 -16 0 0 21 0 0 11 0 0 0 -8 0 0 0 0 0 0 0 0 0 0 0 0 0 0 0 0 0 0 0 0 8 0 0 0 0 0 0 0 0 0 0 0 0 0 0 0 0 0
0.00 0.00 0.00 -1.3283 -7.5254 -3.9724 0.0000 0.0000 0.0000 -12.4238 -10.2452 -14.9040 2.4565 9.7584 28.1980 0.4819 3.8526 -15.0922 1.2296 -7.0326 -19.8119 0.0000 0.0000 0.0000 25.6122 1.4085 -0.1942 -1.8713 -8.5928 24.5295 -1.0311 -8.7907 -24.2604 -0.5910 -4.9220 13.6862 1.2765 -0.1352 19.2894 3.7105 0.5358 -0.4917 3.2306 0.3089 -11.4537 -3.0152 -1.1501 -11.1620 -3.3133 -0.3526 18.9224 -0.6229 -0.7023 7.6825 -0.0000 -0.0000 0.0000 -81.2787 19.7981 26.2933 34.3419 -44.3365 -14.3515 -0.0000 0.0000 -1.6356 10.9888 53.3819 8.8584 -7.1250 0.0000 -0.0000 -68.6726 75.4520 -54.1063 -0.0000 -0.0000 0.0000 67.5814 3.5131 -44.9357 -50.2009 53.0762 -26.3347 0.0000 -0.0000 -76.3798 -19.0421 -4.1520 1.4315 7.1250 -0.0000 -0.0000 6.2579 -34.3195 1.6485
0.00 0.00 0.00 1.2824 -11.6085 -6.0222 0.0000 0.0000 0.0000 -21.6929 -7.7612 -7.9535 2.2297 9.3289 26.8297 0.4037 1.1724 -12.4853 0.3481 -3.7908 -10.4889 0.0000 0.0000 0.0000 16.5887 2.4097 -0.3023 -4.6076 -12.9278 39.0988 -0.7479 -6.9634 -20.3149 -0.0692 1.6970 -4.6691 -2.2841 0.4001 19.9394 2.5703 0.2936 -0.5684 4.0877 0.3761 -11.9090 -2.8306 -0.0966 -11.4002 -4.1887 1.2782 19.6538 -0.7865 -0.0220 7.9829 0.0000 -0.0000 0.0000 -81.4990 18.7472 24.8824 31.2917 -41.9752 -12.2645 -0.0000 0.0000 -1.5179 12.4250 54.6019 10.1814 -7.1250 0.0000 -0.0000 -73.0020 76.2742 -59.0592 0.0000 -0.0000 0.0000 68.0064 3.0339 -45.8988 -50.3229 53.1249 -26.4323 0.0000 -0.0000 -76.9773 -19.2922 -4.3837 1.5326 7.1250 -0.0000 -0.0000 6.0757 -34.5733 1.5624
0.00 0.00 0.00 2.3106 -9.8217 -7.0314 0.0000 0.0000 0.0000 -24.8184 -6.1446 -5.1212 2.0299 8.9281 25.5708 0.3913 0.0917 -11.8518 0.1172 -2.2068 -6.0776 0.0000 0.0000 0.0000 12.6803 2.2710 -9.5564 -8.7356 -16.6345 55.1712 0.3360 -10.4490 -6.2173 -4.9626 -13.3416 40.6610 -3.8984 -0.1171 20.0818 1.5335 -0.9008 -0.3179 4.2049 -0.1359 -11.5887 -1.5428 -0.3876 -10.5850 -4.4032 0.6202 19.3664 -1.1325 -0.2454 7.7300 0.0000 0.0000 0.0000 -78.5840 18.1799 27.9782 33.3461 -43.5944 -13.6601 -0.0000 0.0000 -2.1267 12.3946 54.8232 10.1835 -7.1250 0.0000 -0.0000 -73.9142 76.3013 -59.9551 0.0000 0.0000 0.0000 71.2087 1.4314 -44.2031 -52.7064 54.0304 -28.3503 0.0000 -0.0000 -78.5807 -20.0701 -3.9534 1.4429 7.1250 -0.0000 -0.0000 5.3973 -34.1501 1.4422
0.00 0.00 0.00 1.4612 -6.7821 -5.0673 0.0000 0.0000 0.0000 -26.6358 -4.3357 1.2194 1.7191 8.2548 23.4906 0.8121 -2.5449 -16.3558 0.0715 -1.7253 -4.7472 0.0000 0.0000 0.0000 13.0707 6.9424 -20.9721 -4.0099 -12.1735 36.3487 -0.5762 -5.9376 -17.7269 -0.0000 -0.0429 0.1180 -5.7256 -1.3476 23.0376 3.0027 -2.9641 -1.7793 7.8157 -0.7084 -14.6099 -3.1052 -1.6892 -10.9562 -3.9976 -0.7305 26.6515 -0.9819 -1.1451 10.3247 -0.0000 -0.0000 0.0000 -79.4029 20.2683 26.5254 35.9346 -45.4681 -15.4758 -0.0000 0.0000 -2.8771 13.4721 53.3588 10.8808 -7.1250 0.0000 -0.0000 -67.6380 76.3957 -54.1813 -0.0000 -0.0000 0.0000 68.4472 -1.7162 -50.2092 -68.6823 58.2113 -41.6492 0.0000 -0.0000 -40.6775 -18.5489 5.2744 -1.7667 7.1250 -0.0000 -0.0000 6.0647 -24.4201 3.0311
0.00 0.00 0.00 1.8827 -8.2688 -4.3458 0.0000 0.0000 0.0000 -27.3781 -3.4828 3.1919 1.5701 7.9065 22.4305 0.9846 -1.5334 -18.3017 0.1356 -2.3736 -6.5392 0.0000 0.0000 0.0000 13.1538 8.6383 -21.4984 -4.0806 -12.2669 36.6827 -0.3561 -5.1039 -14.3117 -0.0063 0.5111 -1.4043 -6.2659 -1.6870 24.2301 4.2112 -3.4710 -2.3819 9.4015 -0.8199 -15.2651 -4.6624 -2.9899 -10.5515 -5.1029 -1.9043 29.8835 -1.3367 -2.0676 11.4943 -0.0000 0.0000 0.0000 -82.0862 22.1884 25.9930 34.9969 -44.8099 -14.8111 -0.0000 0.0000 -3.1077 12.8207 53.4328 10.3581 -7.1250 0.0000 -0.0000 -68.1704 76.1644 -54.4220 -0.0000 0.0000 0.0000 66.0482 -1.9087 -39.3209 -88.6244 59.9928 -58.8087 0.0000 -0.0000 -14.5933 -20.1824 11.6577 -4.2478 7.1250 -0.0000 -0.0000 4.8785 -17.6097 3.1856
0.00 0.00 0.00 1.0254 -12.8479 -2.2297 0.0000 0.0000 0.0000 -26.7136 -1.9470 4.0814 1.8789 8.6091 24.5801 1.2214 1.1326 -21.3226 0.3719 -3.9169 -10.8430 0.0000 0.0000 0.0000 15.4943 11.5873 -20.4548 -4.6743 -13.0073 39.3958 -0.6622 -1.7651 -16.1095 -0.1094 -2.1327 5.8726 -3.3580 -2.2039 19.2153 3.2236 -3.3330 0.8018 6.3580 -1.3652 -9.5158 -6.1766 -7.0148 -9.2714 -3.8080 -7.9536 33.1431 -1.4824 -4.8526 12.6666 -0.0000 0.0000 0.0000 -81.5486 16.3009 26.3280 31.7892 -42.3785 -12.5985 -0.0000 0.0000 -1.2321 13.7010 50.0768 10.5901 -7.1250 0.0000 -0.0000 -55.2017 75.2534 -41.9554 -0.0000 0.0000 0.0000 66.3982 3.7712 -2.0352 -71.3049 58.6373 -43.8836 0.0000 0.0000 22.9888 -24.4770 13.3441 -5.9980 7.1250 -0.0000 -0.0000 1.9761 -15.3779 1.3821
0.00 0.00 0.00 -0.7627 -14.1369 -1.6712 0.0000 0.0000 0.0000 -23.2473 -1.7367 -1.9443 4.8076 13.1638 39.9846 0.6389 -0.5344 -14.9293 1.7166 -8.2490 -23.4728 0.0000 0.0000 0.0000 19.3335 12.6511 -15.3638 -4.3653 -12.6313 38.0036 -0.8785 0.3674 -17.5973 -0.5353 -4.6882 13.0213 -1.7659 -1.2992 19.7840 4.1957 -1.6861 0.6400 6.1331 -0.6000 -10.2412 -7.8427 -8.7153 -7.0178 -3.6702 -10.4243 35.5105 -1.5065 -6.1568 13.3910 0.0000 -0.0000 0.0000 -81.9596 13.5054 28.9279 30.2620 -41.1169 -11.5815 -0.0000 0.0000 -1.3415 10.5559 50.4520 8.1769 -7.1250 0.0000 -0.0000 -58.6416 74.2294 -43.8522 0.0000 -0.0000 0.0000 69.1187 14.3457 0.0837 -21.4993 32.4065 -6.3154 0.0000 0.0000 28.6803 -11.9401 6.1912 -1.3064 7.1250 -0.0000 -0.0000 10.9042 -23.6694 5.7095
0.00 0.00 0.00 -2.0505 -13.4911 -1.6403 0.0000 0.0000 0.0000 -19.4991 -1.8436 -10.4465 8.3715 16.3858 53.8900 -0.0070 -1.5654 0.0448 0.6950 -5.3292 -14.8500 0.0000 0.0000 0.0000 21.3857 9.8785 -12.3746 -3.9381 -12.0776 36.0070 -0.9729 0.4825 -18.4906 -0.1662 -2.6262 7.2397 0.1979 -0.6478 19.8641 4.7653 -0.3354 1.0526 5.2423 -0.0506 -9.9901 -8.0571 -9.4204 -7.0083 -3.4124 -11.4831 36.0223 -1.5498 -6.5899 13.6816 0.0000 -0.0000 0.0000 -82.0279 12.0866 29.9442 31.4773 -42.1264 -12.3888 -0.0000 0.0000 -1.4323 12.1440 48.0685 9.0951 -7.1250 0.0000 -0.0000 -50.1291 73.6137 -36.1425 0.0000 -0.0000 0.0000 71.2411 16.2439 -15.8852 -12.7195 20.8748 -2.3524 0.0000 0.0000 18.6803 -2.1563 -0.8555 0.0322 7.1250 -0.0000 -0.0000 19.1161 -30.4803 7.1375
0.00 0.00 0.00 -3.8428 -9.3366 -2.3548 0.0000 0.0000 0.0000 -14.0033 -3.5693 -24.1156 11.9616 18.3744 65.8670 0.0371 -2.5544 -3.6113 0.3283 -3.6824 -10.1848 0.0000 0.0000 0.0000 25.0452 4.9673 -3.8781 -2.9311 -10.5827 30.8850 -1.2454 -1.7667 -21.7885 -0.2076 -2.9339 8.0947 2.9123 -1.0958 20.6896 5.5578 -0.2028 1.4519 4.5419 -0.0925 -10.0261 -8.9328 -10.0524 -5.5423 -2.4149 -12.7028 36.5685 -1.1389 -7.0955 13.8204 0.0000 0.0000 0.0000 -84.0612 14.3503 24.6570 34.4274 -44.3989 -14.4113 -0.0000 0.0000 -7.7515 14.1246 48.7737 10.7171 -7.1250 0.0000 -0.0000 -50.5854 74.7502 -37.5965 0.0000 0.0000 0.0000 81.1144 7.0686 -28.8798 -14.2274 23.0589 -2.9166 0.0000 -0.0000 -19.7483 -13.2453 -5.8838 1.3822 7.1250 -0.0000 -0.0000 11.2494 -35.8291 2.5763
0.00 0.00 0.00 -3.3418 -10.2129 -1.9242 0.0000 0.0000 0.0000 -12.0928 -11.5782 -21.2086 2.3636 9.5856 27.6451 -0.0393 4.2420 -4.0761 0.1756 -2.6993 -7.4427 0.0000 0.0000 0.0000 21.9323 2.6993 12.8292 -3.2378 -11.0704 32.5176 0.2190 -8.3048 -3.9100 -0.0374 1.2480 -3.4316 -0.8942 -2.8459 19.7255 4.8864 -3.4776 0.9973 6.8631 -1.5053 -9.6058 -12.5057 -10.0963 1.3522 -1.5075 -13.4171 33.9012 0.1969 -7.8790 11.7532 0.0000 -0.0000 0.0000 -91.6076 23.5448 4.7434 17.7359 -27.8177 -4.4253 -0.0000 -0.0000 1.7762 9.2103 47.5983 6.8279 -7.1250 0.0000 -0.0000 -51.3472 72.2786 -35.8162 0.0000 -0.0000 0.0000 80.6250 -14.4038 -37.1908 -50.0216 53.0042 -26.1914 0.0000 -0.0000 -63.1917 1.6703 -2.2928 -0.0668 7.1250 -0.0000 -0.0000 22.3112 -31.6755 7.8015
0.00 0.00 0.00 -0.2186 -11.1713 -3.0625 0.0000 0.0000 0.0000 -17.9404 -10.1725 -16.5737 2.4376 9.7236 28.0861 0.0922 2.4532 -7.1853 0.0075 0.5580 1.5332 0.0000 0.0000 0.0000 18.0501 6.6169 4.1885 -7.2213 -15.5155 49.7064 -0.1386 -15.5718 12.3621 -0.6090 -4.9950 13.8942 -4.2738 -2.8455 19.7314 4.2189 -4.3001 0.1688 8.3425 -1.7059 -10.2389 -13.0215 -8.7869 2.9651 -2.3045 -11.5558 33.9783 0.2915 -7.2349 11.3569 0.0000 0.0000 0.0000 -91.6339 25.2185 6.6660 20.7593 -31.5463 -5.9235 -0.0000 -0.0000 0.8845 8.4492 48.9303 6.3899 -7.1250 0.0000 -0.0000 -55.5948 72.7234 -39.7122 0.0000 0.0000 0.0000 75.0617 -13.2474 -36.5232 -70.8021 58.5605 -43.4545 0.0000 -0.0000 -57.1855 0.6562 -2.6281 -0.0301 7.1250 -0.0000 -0.0000 21.6229 -32.0326 7.3256
0.00 0.00 0.00 1.8653 -10.7115 -4.0216 0.0000 0.0000 0.0000 -21.7687 -8.1273 -12.8463 2.2055 9.2816 26.6803 0.1822 0.8855 -8.4364 0.0244 1.0078 2.7702 0.0000 0.0000 0.0000 16.1138 8.5110 -3.1635 -10.7373 -17.8041 61.9256 -0.1917 -16.4234 13.3914 -1.1322 -6.7580 19.0004 -3.9564 -2.0419 19.7957 2.1370 -3.3664 1.5801 5.5054 -1.4156 -9.0021 -7.1014 -9.4592 -4.1901 -4.6948 -11.5642 35.6215 -1.9796 -6.7236 12.7308 0.0000 -0.0000 0.0000 -85.4579 20.9789 13.4276 23.1871 -34.2928 -7.2434 -0.0000 0.0000 -2.0199 11.7785 47.9518 8.8019 -7.1250 0.0000 -0.0000 -50.1095 73.4123 -35.9338 0.0000 -0.0000 0.0000 75.5331 -8.4775 -39.6549 -90.2130 59.9998 -60.1845 0.0000 -0.0000 -48.6507 -1.7718 -1.6973 0.0525 7.1250 -0.0000 -0.0000 19.5753 -31.2616 6.9373
0.00 0.00 0.00 3.2973 -8.9330 -4.8634 0.0000 0.0000 0.0000 -24.7763 -6.1728 -8.5341 1.9316 8.7221 24.9299 0.3079 -1.0278 -10.1701 0.0005 0.1485 0.4079 0.0000 0.0000 0.0000 14.8953 7.6979 -11.5332 -13.3612 -18.9087 70.2437 0.1640 -14.5350 8.2019 -1.4642 -7.6473 21.6478 -5.1190 -2.2468 20.1723 1.7527 -3.9455 1.5866 5.9215 -1.6494 -9.0818 -5.8038 -8.0925 -4.9998 -4.4571 -9.7559 34.9716 -1.8780 -5.7220 12.5028 -0.0000 0.0000 0.0000 -82.9562 17.5369 15.4694 25.0750 -36.2806 -8.3343 -0.0000 0.0000 -4.1588 15.1985 47.5177 11.3292 -7.1250 0.0000 -0.0000 -45.8098 74.4314 -33.4294 -0.0000 0.0000 0.0000 71.4953 -4.3765 -36.8439 -109.0477 58.5837 -76.4173 0.0000 -0.0000 -36.6745 -4.8916 -1.0451 0.0894 7.1250 -0.0000 -0.0000 17.0666 -30.7455 6.1897
0.00 0.00 0.00 5.2199 -5.1671 -4.5381 0.0000 0.0000 0.0000 -28.5400 -4.3909 -3.4990 2.0445 8.9581 25.6644 0.7706 -4.4357 -15.6828 0.2146 -2.9825 -8.2299 0.0000 0.0000 0.0000 14.4437 6.4205 -25.9662 -12.3828 -18.5478 67.1970 -0.0309 -6.5345 -10.0661 -0.5924 -4.9278 13.7026 -6.8120 -2.4567 19.4883 1.4703 -4.5947 1.1606 6.7073 -1.8911 -8.9841 -4.6273 -6.6502 -5.2613 -3.3008 -8.1499 34.3235 -1.4190 -4.7050 12.2485 0.0000 0.0000 0.0000 -79.4529 9.1555 19.3921 29.6340 -40.5776 -11.1708 -0.0000 0.0000 -8.1385 20.2718 48.0394 15.3577 -7.1250 0.0000 -0.0000 -42.6611 76.7251 -32.8254 0.0000 0.0000 0.0000 64.3534 4.7017 -24.0932 -121.1443 55.9972 -86.6093 0.0000 -0.0000 -9.6138 -9.9412 2.5804 -0.4521 7.1250 -0.0000 -0.0000 12.7082 -27.2911 5.5953
0.00 0.00 0.00 5.8228 -3.6345 -3.6225 0.0000 0.0000 0.0000 -30.0017 -2.7718 0.8084 1.8031 8.4432 24.0686 1.0550 -4.9480 -18.3941 0.2127 -2.9692 -8.1929 0.0000 0.0000 0.0000 14.6686 6.6509 -32.7090 -7.7280 -15.9155 51.5770 -0.2458 -6.1602 -13.6136 -0.1686 -2.6451 7.2922 -7.5929 -2.3707 19.1989 1.4968 -4.6353 0.9350 7.1801 -1.8695 -9.0055 -4.5487 -6.2556 -5.2502 -2.2069 -7.8616 32.6801 -0.9287 -4.4190 11.6156 -0.0000 0.0000 0.0000 -77.6836 3.3137 23.1350 33.9335 -44.0354 -14.0668 -0.0000 0.0000 -7.1435 15.9705 50.2419 12.4078 -7.1250 0.0000 -0.0000 -54.1712 76.2164 -42.0186 -0.0000 0.0000 0.0000 60.9694 12.1156 -10.8136 -109.9177 58.4466 -77.1592 0.0000 0.0000 9.6172 -13.2026 5.6919 -1.3328 7.1250 -0.0000 -0.0000 10.0092 -24.1418 5.1152
